<svg width="8" height="9" viewBox="0 0 8 9" fill="none" xmlns="http://www.w3.org/2000/svg">
<g clip-path="url(#clip0_1259_18162)">
<path d="M3.07231 0.5H6.91231L7.13631 0.548L7.29631 0.644L7.48831 0.836L7.61631 1.06L7.66431 1.204L7.68031 1.3V5.684L7.64831 5.844L7.56831 6.036L7.45631 6.196L7.32831 6.324L7.16831 6.436L7.08831 6.468L6.91231 6.5H3.07231L2.89631 6.468L2.70431 6.356L2.51231 6.18L2.38431 5.956L2.32031 5.764V1.236L2.38431 1.044L2.48031 0.868L2.62431 0.708L2.83231 0.564L2.89631 0.532L3.07231 0.5Z" fill="#007AFF"/>
<path d="M1.13631 2.14795H1.84031L1.85631 5.58795L1.88831 5.87595L2.00031 6.21195L2.11231 6.40395L2.20831 6.51595L2.33631 6.62795L2.52831 6.77195L2.78431 6.89995L3.04031 6.96395L3.24831 6.97995L6.33631 6.99595V7.76395L6.27231 7.95595L6.17631 8.13195L6.01631 8.30795L5.79231 8.45195L5.58431 8.49995H1.07231L0.896312 8.46795L0.704312 8.35595L0.528312 8.19595L0.416312 8.01995L0.336312 7.82795L0.320312 7.76395V2.89995L0.400312 2.65995L0.496312 2.51595L0.672312 2.33995H0.704312V2.30795L0.928312 2.19595L1.13631 2.14795Z" fill="#007AFF"/>
</g>
<defs>
<clipPath id="clip0_1259_18162">
<rect width="8" height="8" fill="white" transform="translate(0 0.5)"/>
</clipPath>
</defs>
</svg>
