<svg width="83" height="78" viewBox="0 0 83 78" fill="none" xmlns="http://www.w3.org/2000/svg">
    <path d="M6.55994 20.0951L41.5 1.13771L76.4401 20.0951V57.9049L41.5 76.8623L6.55994 57.9049V20.0951Z"
        stroke="url(#paint0_linear_20_12804)" stroke-width="2" />
    <path d="M11.7561 23.0982L41.5 7.13492L71.2439 23.0982V54.9018L41.5 70.8651L11.7561 54.9018V23.0982Z" fill="#1D60EC"
        fill-opacity="0.35" stroke="#007AFF" stroke-width="2" />
    <path
        d="M52.7999 43.893V44.588C52.7918 44.6221 52.7795 44.6557 52.7762 44.69C52.7039 45.4525 52.4644 46.1607 52.0219 46.7835C50.9663 48.2686 49.5175 48.9526 47.7009 48.7722C46.4738 48.6502 45.4483 48.0877 44.6841 47.1178C43.5609 45.6925 43.3255 44.1044 44.0356 42.4374C44.6846 40.9136 45.8855 40.0266 47.5171 39.7282C47.5867 39.7155 47.6205 39.705 47.6203 39.6224C47.6179 38.481 47.6258 37.3393 47.6152 36.1978C47.6128 35.9334 47.5799 35.6619 47.5118 35.4068C47.2039 34.2514 46.1695 33.5418 45.0287 33.6853C43.6418 33.8598 42.7545 35.1224 42.7475 36.2055C42.7327 38.5527 42.742 40.8999 42.7396 43.2471C42.7389 43.8205 42.7624 44.3938 42.6508 44.9638C42.4264 46.1127 41.8495 47.0115 40.8151 47.5887C39.9967 48.0454 39.1144 48.1765 38.1952 48.0301C37.4366 47.9094 36.7607 47.5971 36.1991 47.0636C35.3887 46.2937 35.0515 45.3207 35.038 44.2311C35.0205 42.7945 35.0335 41.3574 35.0335 39.9205C35.0335 39.6358 34.9396 39.4962 34.6703 39.3966C34.0624 39.1714 33.5008 38.8645 32.9983 38.4538C32.0145 37.6498 31.3951 36.6382 31.2388 35.3638C31.2268 35.2662 31.2127 35.1687 31.1997 35.0713C31.1997 34.5121 31.1997 33.9526 31.1997 33.3934C31.2381 33.2281 31.2698 33.0608 31.3163 32.8978C31.4769 32.336 32.0349 31.9225 32.639 31.8867C32.7489 31.8802 32.8598 31.8858 32.9788 31.8858C32.9788 31.8327 32.9788 31.7974 32.9788 31.7622C32.9791 31.1672 32.9769 30.572 32.9807 29.977C32.9827 29.6682 33.1219 29.4339 33.3945 29.2846C33.4591 29.2491 33.5311 29.227 33.5995 29.1985C33.6955 29.1985 33.7915 29.1985 33.8875 29.1985C33.8932 29.2038 33.8978 29.2117 33.9045 29.2138C34.3327 29.3506 34.516 29.5986 34.5158 30.0418C34.5158 30.4486 34.5146 30.8554 34.5141 31.2622C34.5141 31.4679 34.5141 31.6736 34.5141 31.8793H36.7072C36.7072 31.8241 36.7072 31.777 36.7072 31.73C36.7072 31.1473 36.7046 30.5643 36.7075 29.9816C36.7091 29.641 36.8704 29.3986 37.1807 29.2561C37.2261 29.2352 37.2731 29.2174 37.3192 29.1982C37.4231 29.1982 37.5273 29.1982 37.6312 29.1982C37.6396 29.2057 37.6471 29.2172 37.6567 29.2196C38.0313 29.3125 38.2526 29.6504 38.2456 30.0332C38.2358 30.5763 38.2435 31.1197 38.2439 31.6628C38.2439 31.7336 38.2439 31.8044 38.2439 31.8793C38.3479 31.8891 38.4412 31.8872 38.5293 31.9083C38.7496 31.9606 38.9786 31.9978 39.1843 32.0866C39.7214 32.3182 39.964 32.7694 40.0003 33.3277C40.042 33.9723 40.0703 34.6186 39.9859 35.2642C39.8404 36.3774 39.4279 37.3628 38.6219 38.1637C38.1136 38.6689 37.5119 39.0337 36.8563 39.3135C36.6412 39.4052 36.532 39.5593 36.5356 39.7957C36.5395 40.0508 36.5361 40.3062 36.5363 40.5615C36.5371 41.7942 36.5277 43.0268 36.5414 44.2592C36.5555 45.5379 37.6024 46.7326 39.1351 46.5342C40.2587 46.3885 41.1655 45.4566 41.2307 44.3307C41.2639 43.7617 41.2471 43.1898 41.249 42.619C41.2511 41.9444 41.2499 41.27 41.249 40.5954C41.248 39.9567 41.2444 39.3181 41.2444 38.6794C41.2444 38.0686 41.2423 37.4578 41.2514 36.8473C41.2567 36.4892 41.2425 36.1242 41.3051 35.7745C41.6109 34.0666 42.5911 32.9149 44.2521 32.3955C45.4161 32.0317 46.5122 32.234 47.4947 32.9698C48.0393 33.3776 48.4223 33.9202 48.7509 34.507C49.0245 34.9959 49.1495 35.5155 49.1443 36.0771C49.1335 37.2234 49.1411 38.3701 49.1411 39.5163C49.1411 39.5984 49.1411 39.6805 49.1411 39.7626C50.0078 39.951 50.7647 40.3395 51.4012 40.9546C52.0653 41.5966 52.4959 42.3704 52.6948 43.2711C52.7402 43.4758 52.7654 43.6851 52.7997 43.8922L52.7999 43.893ZM51.7166 44.1822C51.665 42.2067 50.0711 40.6904 48.0808 40.7605C46.1668 40.8279 44.6632 42.4472 44.7391 44.3778C44.8125 46.2514 46.3699 47.7771 48.3419 47.726C50.2255 47.6773 51.7658 46.0606 51.7168 44.1822H51.7166Z"
        fill="white" />
    <path
        d="M48.7165 43.7988C48.9916 43.7988 49.2513 43.8007 49.5107 43.798C49.6417 43.7966 49.7615 43.8165 49.8244 43.9476C49.8849 44.0733 49.8493 44.182 49.7625 44.2884C49.2306 44.9412 48.7021 45.5966 48.1727 46.2513C47.9869 46.481 47.8019 46.7112 47.6164 46.9411C47.6089 46.9504 47.6005 46.9591 47.5933 46.9684C47.5305 47.0512 47.452 47.0901 47.3548 47.0337C47.2629 46.9804 47.259 46.8969 47.2919 46.804C47.4383 46.391 47.5835 45.9772 47.7285 45.5637C47.7954 45.3727 47.8617 45.1812 47.9409 44.9534C47.7369 44.9534 47.5518 44.9553 47.367 44.9524C47.296 44.9515 47.2206 44.9524 47.1549 44.9304C47.0322 44.8888 46.9744 44.7763 46.9897 44.6188C47.0399 44.1067 47.0939 43.5948 47.1467 43.0828C47.1808 42.7536 47.2129 42.4243 47.2504 42.0955C47.2746 41.8826 47.4297 41.7369 47.6445 41.7343C48.0721 41.7292 48.5001 41.7292 48.9277 41.734C49.1632 41.7367 49.2923 41.9308 49.2217 42.156C49.0573 42.6808 48.8944 43.2062 48.7309 43.7313C48.7264 43.746 48.7242 43.7613 48.7163 43.7983L48.7165 43.7988Z"
        fill="white" />
    <defs>
        <linearGradient id="paint0_linear_20_12804" x1="53" y1="-8.5855e-07" x2="38" y2="78"
            gradientUnits="userSpaceOnUse">
            <stop stop-color="#007AFF" stop-opacity="0" />
            <stop offset="0.45" stop-color="#007AFF" stop-opacity="0.15" />
            <stop offset="1" stop-color="#007AFF" stop-opacity="0.6" />
        </linearGradient>
    </defs>
</svg>