<svg width="83" height="78" viewBox="0 0 83 78" fill="none" xmlns="http://www.w3.org/2000/svg">
<path d="M6.55994 20.0951L41.5 1.13771L76.4401 20.0951V57.9049L41.5 76.8623L6.55994 57.9049V20.0951Z" stroke="url(#paint0_linear_20_13850)" stroke-width="2"/>
<path d="M11.7561 23.0982L41.5 7.13492L71.2439 23.0982V54.9018L41.5 70.8651L11.7561 54.9018V23.0982Z" fill="#1D60EC" fill-opacity="0.35" stroke="#007AFF" stroke-width="2"/>
<path d="M50.0001 36.6702V36.5002C50.0061 34.7991 49.4664 33.141 48.4602 31.7694C47.454 30.3978 46.0345 29.3851 44.4101 28.8802H44.3501C43.5111 28.6244 42.637 28.5029 41.7601 28.5202C39.6719 28.6348 37.7062 29.5419 36.2641 31.0565C34.822 32.5711 34.0122 34.5789 34.0001 36.6702C33.4141 36.8763 32.9065 37.2593 32.5475 37.7662C32.1884 38.2731 31.9956 38.879 31.9956 39.5002C31.9956 40.1214 32.1884 40.7272 32.5475 41.2341C32.9065 41.7411 33.4141 42.124 34.0001 42.3302C34.206 44.3049 35.139 46.1326 36.6175 47.4577C38.0961 48.7829 40.0146 49.5109 42.0001 49.5002H42.2301C44.15 49.4072 45.975 48.637 47.3809 47.3262C48.7869 46.0155 49.683 44.2489 49.9101 42.3402C50.503 42.1457 51.0204 41.7712 51.3905 41.2688C51.7605 40.7664 51.9647 40.1611 51.9746 39.5372C51.9845 38.9133 51.7997 38.3019 51.4457 37.788C51.0918 37.2741 50.5865 36.8834 50.0001 36.6702ZM42.1801 47.5002C40.7325 47.542 39.3186 47.0589 38.1993 46.14C37.08 45.221 36.3308 43.9282 36.0901 42.5002H47.8601C47.616 43.8521 46.922 45.0817 45.8909 45.9894C44.8597 46.8971 43.552 47.4295 42.1801 47.5002ZM49.0001 40.5002H35.0001C34.7348 40.5002 34.4805 40.3948 34.293 40.2073C34.1054 40.0197 34.0001 39.7654 34.0001 39.5002C34.0001 39.235 34.1054 38.9806 34.293 38.7931C34.4805 38.6055 34.7348 38.5002 35.0001 38.5002H37.0001C37.2653 38.5002 37.5196 38.3948 37.7072 38.2073C37.8947 38.0197 38.0001 37.7654 38.0001 37.5002C38.0001 37.235 37.8947 36.9806 37.7072 36.7931C37.5196 36.6055 37.2653 36.5002 37.0001 36.5002H36.0001C36.0448 35.4628 36.3413 34.4519 36.864 33.5546C37.3866 32.6574 38.1198 31.9008 39.0001 31.3502V34.5002C39.0001 34.7654 39.1054 35.0197 39.293 35.2073C39.4805 35.3948 39.7348 35.5002 40.0001 35.5002C40.2653 35.5002 40.5196 35.3948 40.7072 35.2073C40.8947 35.0197 41.0001 34.7654 41.0001 34.5002V30.5902C41.2715 30.5448 41.5453 30.5148 41.8201 30.5002H42.0001C42.3352 30.5049 42.6695 30.535 43.0001 30.5902V34.5002C43.0001 34.7654 43.1054 35.0197 43.293 35.2073C43.4805 35.3948 43.7348 35.5002 44.0001 35.5002C44.2653 35.5002 44.5196 35.3948 44.7072 35.2073C44.8947 35.0197 45.0001 34.7654 45.0001 34.5002V31.3202C45.4243 31.5658 45.82 31.8576 46.1801 32.1902C46.7566 32.7501 47.2148 33.4201 47.5275 34.1605C47.8401 34.9008 48.0008 35.6965 48.0001 36.5002H47.0001C46.7348 36.5002 46.4805 36.6055 46.293 36.7931C46.1054 36.9806 46.0001 37.235 46.0001 37.5002C46.0001 37.7654 46.1054 38.0197 46.293 38.2073C46.4805 38.3948 46.7348 38.5002 47.0001 38.5002H49.0001C49.2653 38.5002 49.5196 38.6055 49.7072 38.7931C49.8947 38.9806 50.0001 39.235 50.0001 39.5002C50.0001 39.7654 49.8947 40.0197 49.7072 40.2073C49.5196 40.3948 49.2653 40.5002 49.0001 40.5002Z" fill="white"/>
<defs>
<linearGradient id="paint0_linear_20_13850" x1="53" y1="-8.5855e-07" x2="38" y2="78" gradientUnits="userSpaceOnUse">
<stop stop-color="#007AFF" stop-opacity="0"/>
<stop offset="0.45" stop-color="#007AFF" stop-opacity="0.15"/>
<stop offset="1" stop-color="#007AFF" stop-opacity="0.6"/>
</linearGradient>
</defs>
</svg>
