<svg width="83" height="78" viewBox="0 0 83 78" fill="none" xmlns="http://www.w3.org/2000/svg">
<path d="M6.55994 20.0951L41.5 1.13771L76.4401 20.0951V57.9049L41.5 76.8623L6.55994 57.9049V20.0951Z" stroke="url(#paint0_linear_20_13822)" stroke-width="2"/>
<path d="M11.7561 23.0982L41.5 7.13492L71.2439 23.0982V54.9018L41.5 70.8651L11.7561 54.9018V23.0982Z" fill="#1D60EC" fill-opacity="0.35" stroke="#007AFF" stroke-width="2"/>
<g clip-path="url(#clip0_20_13822)">
<path d="M44.9994 31.5C44.9994 33.4695 44.5434 35.262 43.7994 36.6C43.4841 36.3634 43.1251 36.1912 42.7432 36.0934C42.3612 35.9956 41.9637 35.9741 41.5734 36.03C41.1534 34.557 40.2084 32.97 38.8164 31.5765C38.5805 31.3393 38.3348 31.1121 38.0799 30.8955C39.3022 30.3053 40.6421 29.9991 41.9994 30C43.0359 30 44.0319 30.1755 44.9589 30.498C44.9859 30.827 44.9994 31.161 44.9994 31.5ZM44.9994 39C44.9994 39.11 44.9934 39.2185 44.9814 39.3255C46.5084 39.297 48.2814 38.796 49.9779 37.8165C50.2704 37.6481 50.5557 37.4674 50.8329 37.275C50.3768 34.9365 49.0121 32.8743 47.0379 31.5405C46.9771 31.863 46.9046 32.1833 46.8204 32.5005C46.3104 34.404 45.4044 36.0195 44.3364 37.119C44.7519 37.6335 44.9994 38.289 44.9994 39ZM44.7939 40.092C44.6497 40.4616 44.4336 40.799 44.1581 41.0845C43.8826 41.3701 43.5532 41.5981 43.1889 41.7555C43.9764 43.0605 45.2964 44.343 46.9914 45.321C47.2914 45.495 47.5939 45.6535 47.8989 45.7965C48.7922 45.0214 49.524 44.0778 50.0524 43.0197C50.5808 41.9616 50.8955 40.8098 50.9784 39.63C50.6674 39.74 50.3469 39.8395 50.0169 39.9285C48.1209 40.437 46.2774 40.4625 44.7939 40.0935V40.092ZM41.9994 42C41.3244 42 40.7004 41.7765 40.1994 41.4C39.4584 42.735 39.0054 44.523 39.0054 46.4865C39.0054 46.8325 39.0189 47.1715 39.0459 47.5035C39.9958 47.8328 40.9941 48.0006 41.9994 48C43.4094 48 44.7444 47.676 45.9339 47.097C45.6759 46.8786 45.4271 46.6494 45.1884 46.41C43.8009 45.021 42.8559 43.4385 42.4344 41.97C42.2934 41.99 42.1484 42 41.9994 42ZM38.9994 39C38.9994 38.88 39.0064 38.7605 39.0204 38.6415C37.4904 38.667 35.7129 39.168 34.0104 40.152C33.719 40.3195 33.4348 40.4991 33.1584 40.6905C33.3804 41.8521 33.8292 42.9586 34.4791 43.9467C35.129 44.9348 35.9672 45.7851 36.9459 46.449C37.0062 46.1195 37.0803 45.7928 37.1679 45.4695C37.6779 43.569 38.5779 41.9565 39.6429 40.857C39.226 40.3278 38.9993 39.6737 38.9994 39ZM33.9789 38.052C35.8794 37.542 37.7259 37.5195 39.2109 37.8915C39.5049 37.1505 40.0854 36.5565 40.8159 36.2415C40.0299 34.9305 38.7069 33.642 37.0044 32.6595C36.7141 32.4911 36.4169 32.335 36.1134 32.1915C35.2191 32.9648 34.4859 33.9068 33.9557 34.9636C33.4255 36.0204 33.1087 37.1713 33.0234 38.3505C33.3324 38.2405 33.6509 38.141 33.9789 38.052ZM41.9994 40.5C42.3973 40.5 42.7788 40.342 43.0601 40.0607C43.3414 39.7794 43.4994 39.3978 43.4994 39C43.4994 38.6022 43.3414 38.2206 43.0601 37.9393C42.7788 37.658 42.3973 37.5 41.9994 37.5C41.6016 37.5 41.2201 37.658 40.9388 37.9393C40.6575 38.2206 40.4994 38.6022 40.4994 39C40.4994 39.3978 40.6575 39.7794 40.9388 40.0607C41.2201 40.342 41.6016 40.5 41.9994 40.5Z" fill="white"/>
<path d="M42 49.5C39.2152 49.5 36.5445 48.3938 34.5754 46.4246C32.6062 44.4555 31.5 41.7848 31.5 39C31.5 36.2152 32.6062 33.5445 34.5754 31.5754C36.5445 29.6062 39.2152 28.5 42 28.5C44.7848 28.5 47.4555 29.6062 49.4246 31.5754C51.3938 33.5445 52.5 36.2152 52.5 39C52.5 41.7848 51.3938 44.4555 49.4246 46.4246C47.4555 48.3938 44.7848 49.5 42 49.5ZM42 51C45.1826 51 48.2348 49.7357 50.4853 47.4853C52.7357 45.2348 54 42.1826 54 39C54 35.8174 52.7357 32.7652 50.4853 30.5147C48.2348 28.2643 45.1826 27 42 27C38.8174 27 35.7652 28.2643 33.5147 30.5147C31.2643 32.7652 30 35.8174 30 39C30 42.1826 31.2643 45.2348 33.5147 47.4853C35.7652 49.7357 38.8174 51 42 51Z" fill="white"/>
</g>
<defs>
<linearGradient id="paint0_linear_20_13822" x1="53" y1="-8.5855e-07" x2="38" y2="78" gradientUnits="userSpaceOnUse">
<stop stop-color="#007AFF" stop-opacity="0"/>
<stop offset="0.45" stop-color="#007AFF" stop-opacity="0.15"/>
<stop offset="1" stop-color="#007AFF" stop-opacity="0.6"/>
</linearGradient>
<clipPath id="clip0_20_13822">
<rect width="24" height="24" fill="white" transform="translate(30 27)"/>
</clipPath>
</defs>
</svg>
