<svg width="83" height="78" viewBox="0 0 83 78" fill="none" xmlns="http://www.w3.org/2000/svg">
<path d="M6.55994 20.0951L41.5 1.13771L76.4401 20.0951V57.9049L41.5 76.8623L6.55994 57.9049V20.0951Z" stroke="url(#paint0_linear_20_13836)" stroke-width="2"/>
<path d="M11.7561 23.0982L41.5 7.13492L71.2439 23.0982V54.9018L41.5 70.8651L11.7561 54.9018V23.0982Z" fill="#1D60EC" fill-opacity="0.35" stroke="#007AFF" stroke-width="2"/>
<path d="M51.1599 43.13L49.1599 41.98L50.0499 41.74C50.1806 41.7095 50.3038 41.6531 50.4122 41.574C50.5207 41.4949 50.6121 41.3948 50.681 41.2797C50.7499 41.1645 50.795 41.0367 50.8134 40.9037C50.8319 40.7708 50.8235 40.6355 50.7885 40.5059C50.7536 40.3763 50.693 40.2551 50.6102 40.1495C50.5275 40.0438 50.4243 39.9559 50.3068 39.8909C50.1894 39.826 50.0601 39.7854 49.9266 39.7715C49.7931 39.7576 49.6582 39.7707 49.5299 39.81L46.7099 40.57L43.9999 39L46.7099 37.43L49.5299 38.19H49.7899C50.0551 38.2245 50.3231 38.1522 50.5351 37.989C50.747 37.8259 50.8854 37.5852 50.9199 37.32C50.9543 37.0548 50.8821 36.7867 50.7189 36.5748C50.5557 36.3629 50.3151 36.2245 50.0499 36.19L49.1599 36L51.1599 34.85C51.2741 34.7843 51.3743 34.6968 51.4547 34.5924C51.5352 34.488 51.5942 34.3688 51.6286 34.2416C51.663 34.1144 51.6719 33.9817 51.655 33.851C51.638 33.7203 51.5955 33.5943 51.5299 33.48C51.4642 33.3657 51.3767 33.2656 51.2723 33.1851C51.1679 33.1047 51.0487 33.0456 50.9215 33.0113C50.7943 32.9769 50.6615 32.9679 50.5309 32.9849C50.4002 33.0018 50.2741 33.0443 50.1599 33.11L47.9999 34.37L48.2999 33.26C48.3392 33.1317 48.3523 32.9968 48.3384 32.8633C48.3245 32.7298 48.2839 32.6005 48.2189 32.483C48.154 32.3656 48.0661 32.2624 47.9604 32.1796C47.8548 32.0969 47.7335 32.0362 47.6039 32.0013C47.4744 31.9664 47.3391 31.9579 47.2061 31.9764C47.0732 31.9949 46.9454 32.0399 46.8302 32.1089C46.715 32.1778 46.6149 32.2692 46.5359 32.3776C46.4568 32.4861 46.4003 32.6093 46.3699 32.74L45.5499 35.74L42.9999 37.27V34.14L45.0699 32.07C45.2561 31.8826 45.3607 31.6292 45.3607 31.365C45.3607 31.1008 45.2561 30.8474 45.0699 30.66C44.9769 30.5663 44.8663 30.4919 44.7444 30.4411C44.6226 30.3903 44.4919 30.3642 44.3599 30.3642C44.2279 30.3642 44.0972 30.3903 43.9753 30.4411C43.8534 30.4919 43.7428 30.5663 43.6499 30.66L42.9999 31.31V29C42.9999 28.7348 42.8945 28.4804 42.707 28.2929C42.5194 28.1054 42.2651 28 41.9999 28C41.7347 28 41.4803 28.1054 41.2928 28.2929C41.1052 28.4804 40.9999 28.7348 40.9999 29V31.47L40.1899 30.66C40.0969 30.5663 39.9863 30.4919 39.8644 30.4411C39.7426 30.3903 39.6119 30.3642 39.4799 30.3642C39.3479 30.3642 39.2172 30.3903 39.0953 30.4411C38.9734 30.4919 38.8628 30.5663 38.7699 30.66C38.5836 30.8474 38.4791 31.1008 38.4791 31.365C38.4791 31.6292 38.5836 31.8826 38.7699 32.07L40.9999 34.3V37.3L38.4299 35.78L37.6099 32.78C37.5794 32.6493 37.523 32.5261 37.4439 32.4176C37.3648 32.3092 37.2647 32.2178 37.1495 32.1489C37.0344 32.0799 36.9065 32.0349 36.7736 32.0164C36.6407 31.9979 36.5054 32.0064 36.3758 32.0413C36.2462 32.0762 36.125 32.1369 36.0193 32.2196C35.9137 32.3024 35.8258 32.4056 35.7608 32.523C35.6959 32.6405 35.6552 32.7698 35.6413 32.9033C35.6274 33.0368 35.6405 33.1717 35.6799 33.3L35.9999 34.37L33.8399 33.13C33.7256 33.0643 33.5996 33.0218 33.4689 33.0049C33.3382 32.9879 33.2055 32.9969 33.0782 33.0313C32.951 33.0656 32.8318 33.1247 32.7274 33.2051C32.6231 33.2856 32.5355 33.3857 32.4699 33.5C32.4042 33.6143 32.3617 33.7403 32.3448 33.871C32.3278 34.0017 32.3368 34.1344 32.3711 34.2616C32.4405 34.5186 32.6091 34.7374 32.8399 34.87L34.8399 36L33.9999 36.26C33.7347 36.2945 33.494 36.4329 33.3308 36.6448C33.1677 36.8567 33.0954 37.1248 33.1299 37.39C33.1643 37.6552 33.3028 37.8959 33.5147 38.059C33.7266 38.2222 33.9947 38.2945 34.2599 38.26H34.5199L37.3399 37.5L39.9999 39L37.2899 40.57L34.4699 39.81C34.3376 39.7609 34.1963 39.7403 34.0555 39.7497C33.9147 39.759 33.7774 39.7981 33.6527 39.8643C33.5281 39.9305 33.4189 40.0223 33.3322 40.1338C33.2456 40.2452 33.1836 40.3737 33.1502 40.5108C33.1168 40.648 33.1128 40.7906 33.1385 40.9294C33.1642 41.0682 33.2189 41.2 33.2992 41.3161C33.3795 41.4322 33.4834 41.53 33.6041 41.6031C33.7249 41.6761 33.8598 41.7228 33.9999 41.74L34.8899 41.98L32.8899 43.13C32.6591 43.2626 32.4905 43.4814 32.4211 43.7384C32.3517 43.9953 32.3873 44.2693 32.5199 44.5C32.6525 44.7307 32.8713 44.8993 33.1282 44.9687C33.3852 45.0381 33.6591 45.0026 33.8899 44.87L35.9999 43.63L35.6999 44.74C35.6602 44.868 35.6467 45.0027 35.6601 45.136C35.6736 45.2693 35.7137 45.3986 35.778 45.5161C35.8424 45.6337 35.9297 45.7371 36.0348 45.8202C36.1399 45.9033 36.2607 45.9645 36.3899 46C36.4763 46.0098 36.5635 46.0098 36.6499 46C36.8756 46.0077 37.0974 45.9388 37.2789 45.8044C37.4605 45.6701 37.5913 45.4782 37.6499 45.26L38.4699 42.26L40.9999 40.73V43.86L38.9299 45.93C38.7436 46.1174 38.6391 46.3708 38.6391 46.635C38.6391 46.8992 38.7436 47.1526 38.9299 47.34C39.0225 47.4345 39.1329 47.5097 39.2548 47.5612C39.3767 47.6127 39.5076 47.6395 39.6399 47.64C39.7722 47.6395 39.9031 47.6127 40.0249 47.5612C40.1468 47.5097 40.2573 47.4345 40.3499 47.34L40.9999 46.69V49C40.9999 49.2652 41.1052 49.5196 41.2928 49.7071C41.4803 49.8946 41.7347 50 41.9999 50C42.2651 50 42.5194 49.8946 42.707 49.7071C42.8945 49.5196 42.9999 49.2652 42.9999 49V46.53L43.8099 47.34C43.9028 47.4337 44.0134 47.5081 44.1353 47.5589C44.2572 47.6097 44.3879 47.6358 44.5199 47.6358C44.6519 47.6358 44.7826 47.6097 44.9044 47.5589C45.0263 47.5081 45.1369 47.4337 45.2299 47.34C45.4161 47.1526 45.5207 46.8992 45.5207 46.635C45.5207 46.3708 45.4161 46.1174 45.2299 45.93L42.9999 43.7V40.7L45.5699 42.19L46.3899 45.19C46.4485 45.4082 46.5792 45.6001 46.7608 45.7344C46.9424 45.8688 47.1641 45.9377 47.3899 45.93C47.4763 45.9398 47.5635 45.9398 47.6499 45.93C47.7775 45.8964 47.8973 45.8378 48.0022 45.7576C48.1071 45.6774 48.1951 45.5773 48.2611 45.4629C48.3272 45.3486 48.3699 45.2223 48.3868 45.0913C48.4038 44.9604 48.3946 44.8274 48.3599 44.7L47.9999 43.63L50.1399 44.87C50.2541 44.9357 50.3802 44.9782 50.5109 44.9951C50.6415 45.0121 50.7743 45.0031 50.9015 44.9687C51.0287 44.9344 51.1479 44.8753 51.2523 44.7949C51.3567 44.7144 51.4442 44.6143 51.5099 44.5C51.5755 44.3857 51.618 44.2597 51.635 44.129C51.6519 43.9983 51.643 43.8656 51.6086 43.7384C51.5742 43.6112 51.5152 43.492 51.4347 43.3876C51.3543 43.2832 51.2541 43.1957 51.1399 43.13H51.1599Z" fill="white"/>
<defs>
<linearGradient id="paint0_linear_20_13836" x1="53" y1="-8.5855e-07" x2="38" y2="78" gradientUnits="userSpaceOnUse">
<stop stop-color="#007AFF" stop-opacity="0"/>
<stop offset="0.45" stop-color="#007AFF" stop-opacity="0.15"/>
<stop offset="1" stop-color="#007AFF" stop-opacity="0.6"/>
</linearGradient>
</defs>
</svg>
